# xmcd CD database file
#
# Track frame offsets:
#	150
#	14110
#	34746
#	58393
#	74213
#	92141
#	126621
#	147943
#	163938
#	184561
#
# Disc length: 2746 seconds
#
# Revision: 0
# Processed by: cddbd v1.5.1PL2 Copyright (c) Steve Scherf et al.
# Submitted via: CDex 1.51
#
DISCID=a30ab80a
DTITLE=Roxy Perry - Hi Heel Blues
DYEAR=1996
DGENRE=Blues
TTITLE0=High Heeled Foot
TTITLE1=Woman In Love
TTITLE2=Mother's Blues
TTITLE3=Smack Dab In The Middle
TTITLE4=Ragged
TTITLE5=How Blue Can You Get/Stormy Monday
TTITLE6=I'm Your Baby Now
TTITLE7=Name It And Claim It
TTITLE8=Downtime With The Blues
TTITLE9=Kick Back And Chill
EXTD=YEAR: 1996
EXTT0=
EXTT1=
EXTT2=
EXTT3=
EXTT4=
EXTT5=
EXTT6=
EXTT7=
EXTT8=
EXTT9=
PLAYORDER=
